<svg xmlns="http://www.w3.org/2000/svg" xmlns:xlink="http://www.w3.org/1999/xlink" width="107" height="44" viewBox="0 0 107 44">
  <defs>
    <style>
      .cls-1, .cls-3 {
        fill: #f55a00;
      }

      .cls-1 {
        stroke: #707070;
      }

      .cls-2 {
        clip-path: url(#clip-path);
      }
    </style>
    <clipPath id="clip-path">
      <rect id="Rectangle_22" data-name="Rectangle 22" class="cls-1" width="107" height="44" transform="translate(0 -3)"/>
    </clipPath>
  </defs>
  <g id="Mask_Group_8" data-name="Mask Group 8" class="cls-2" transform="translate(0 3)">
    <path id="Path_51" data-name="Path 51" class="cls-3" d="M7.589,51.849A5.664,5.664,0,0,1,13.6,57.264a4.239,4.239,0,0,1-2.522,3.94,4.953,4.953,0,0,1-3.667.261,5.38,5.38,0,0,0,1.965,3.027,5.6,5.6,0,0,0,4.661.9.636.636,0,0,1,.321,1.231,6.649,6.649,0,0,1-8.381-6.289L5.92,58.928l1.089.892a3.42,3.42,0,0,0,3.523.235,3.008,3.008,0,0,0,1.8-2.789c0-2.009-1.661-4.142-4.74-4.142a6.185,6.185,0,0,0-5.381,3.02,7.749,7.749,0,0,0,.212,7.745c.953,1.769,2.639,2.89,4.424,4.076A22.485,22.485,0,0,1,9.85,70.211,7.355,7.355,0,0,1,11.6,72.659a9.5,9.5,0,0,1,5.911,2.554,11.658,11.658,0,0,1,1.317,1.5.619.619,0,0,1,.155.143,18.752,18.752,0,0,1,2.224,3.568c1.658,2.7,3.643,3.747,7.123,4.67,1.955.519,3.768,1.773,5.068.733a3.981,3.981,0,0,0,1.479-3.377,3.463,3.463,0,0,0-3.2-3.033,1.892,1.892,0,0,0-2.1,1.445,1.523,1.523,0,0,0,.9,1.722.636.636,0,0,1-.439,1.194,2.786,2.786,0,0,1-1.706-3.139,3.133,3.133,0,0,1,3.35-2.494,4.715,4.715,0,0,1,4.465,4.263c.059,1.791-.466,4.2-3.326,5.09s-9.5-1.96-10.947-3.826c-.05,1.278-.945,3.365-2.18,3.826s-5.312,1.1-6.365-1.7.339-3.323,1.284-3.877a2.6,2.6,0,0,1,3.23.488.635.635,0,1,1-.964.827,1.346,1.346,0,0,0-1.626-.217,1.819,1.819,0,0,0-.808,1.675c.052.663-.009.958.591,1.417,1.208.919,3.618,1.119,4.646,0a4.519,4.519,0,0,0,.707-4.243A7.422,7.422,0,0,0,20.073,81c-.152-.249-.3-.5-.451-.741a19.68,19.68,0,0,0-2.98-4.122A8.256,8.256,0,0,0,12,73.959a7,7,0,0,1-1.271,5.4A4.521,4.521,0,0,1,7.56,81.205a3.331,3.331,0,0,1-3.722-3.4,4.318,4.318,0,0,1,1.328-3.088,8.271,8.271,0,0,1,5.015-2.051,6.214,6.214,0,0,0-1.2-1.527,21.244,21.244,0,0,0-2.837-2.114C4.307,67.8,2.408,66.542,1.3,64.493a8.992,8.992,0,0,1-.186-9A7.442,7.442,0,0,1,7.589,51.849Zm-1.555,23.8A3.018,3.018,0,0,0,5.105,77.8a2.125,2.125,0,0,0,.63,1.574,2.094,2.094,0,0,0,1.469.571c.084,0,.163,0,.237-.011a3.283,3.283,0,0,0,2.265-1.33,5.668,5.668,0,0,0,.966-4.715A7.109,7.109,0,0,0,6.034,75.644ZM71.411,44.15A5.663,5.663,0,0,1,65.4,38.736a4.238,4.238,0,0,1,2.521-3.94,4.943,4.943,0,0,1,3.667-.261,5.38,5.38,0,0,0-1.965-3.027,5.6,5.6,0,0,0-4.66-.9.636.636,0,0,1-.322-1.231,6.649,6.649,0,0,1,8.381,6.288l.055,1.41-1.089-.892a3.42,3.42,0,0,0-3.523-.235,3.008,3.008,0,0,0-1.8,2.789c0,2.008,1.661,4.142,4.74,4.142a6.185,6.185,0,0,0,5.381-3.02,7.751,7.751,0,0,0-.212-7.745c-.953-1.77-2.639-2.89-4.424-4.077a22.329,22.329,0,0,1-3.006-2.246A7.361,7.361,0,0,1,67.4,23.341a9.489,9.489,0,0,1-5.91-2.554,11.626,11.626,0,0,1-1.316-1.5.625.625,0,0,1-.157-.147,18.744,18.744,0,0,1-2.223-3.565c-1.658-2.7-3.512-5.315-6.993-6.238a5.921,5.921,0,0,0-5.2.834,3.981,3.981,0,0,0-1.479,3.377,3.462,3.462,0,0,0,3.2,3.032,1.892,1.892,0,0,0,2.1-1.445,1.522,1.522,0,0,0-.9-1.721.636.636,0,0,1,.439-1.194,2.784,2.784,0,0,1,1.705,3.139,3.131,3.131,0,0,1-3.349,2.494,4.715,4.715,0,0,1-4.465-4.263,5.276,5.276,0,0,1,1.957-4.415,6.61,6.61,0,0,1,4.152-1.356,8.486,8.486,0,0,1,2.161.288,11.032,11.032,0,0,1,6,4.219,5.14,5.14,0,0,1,1.259-3.3,4.453,4.453,0,0,1,3.273-1.375,4.332,4.332,0,0,1,2.623.851,3.867,3.867,0,0,1,1.538,2.706,3.091,3.091,0,0,1-1.432,2.871,2.6,2.6,0,0,1-3.23-.488.636.636,0,0,1,.965-.828,1.34,1.34,0,0,0,1.625.217,1.816,1.816,0,0,0,.808-1.673,2.579,2.579,0,0,0-1.041-1.791,3.277,3.277,0,0,0-4.2.372,4.524,4.524,0,0,0-.706,4.244,7.293,7.293,0,0,0,.315.864c.152.249.3.5.451.741a19.644,19.644,0,0,0,2.98,4.122A8.259,8.259,0,0,0,67,22.041a7,7,0,0,1,1.271-5.4,4.52,4.52,0,0,1,3.172-1.847,3.331,3.331,0,0,1,3.722,3.4,4.311,4.311,0,0,1-1.329,3.087,8.267,8.267,0,0,1-5.014,2.052,6.214,6.214,0,0,0,1.2,1.527,21.165,21.165,0,0,0,2.836,2.113c1.838,1.221,3.737,2.484,4.84,4.534a8.992,8.992,0,0,1,.186,9A7.443,7.443,0,0,1,71.411,44.15Zm1.555-23.794a3.021,3.021,0,0,0,.928-2.159,2.063,2.063,0,0,0-2.335-2.135,3.279,3.279,0,0,0-2.265,1.33,5.666,5.666,0,0,0-.966,4.714A7.11,7.11,0,0,0,72.966,20.356ZM47.32,78.144a3.133,3.133,0,0,1,3.35,2.494,2.786,2.786,0,0,1-1.706,3.139.636.636,0,0,1-.439-1.194,1.523,1.523,0,0,0,.9-1.722,1.892,1.892,0,0,0-2.1-1.445,3.463,3.463,0,0,0-3.2,3.033A3.981,3.981,0,0,0,45.6,85.827a5.916,5.916,0,0,0,5.2.833c3.481-.922,5.335-3.54,6.993-6.237a18.782,18.782,0,0,1,2.223-3.566.652.652,0,0,1,.154-.143,11.672,11.672,0,0,1,1.319-1.5,9.492,9.492,0,0,1,5.91-2.554,7.341,7.341,0,0,1,1.751-2.448,22.421,22.421,0,0,1,3.006-2.247c1.785-1.186,3.471-2.307,4.424-4.076a7.751,7.751,0,0,0,.212-7.745,6.185,6.185,0,0,0-5.381-3.02c-3.078,0-4.74,2.134-4.74,4.142a3.008,3.008,0,0,0,1.8,2.789,3.422,3.422,0,0,0,3.523-.235l1.089-.892-.055,1.409a6.649,6.649,0,0,1-8.381,6.289.636.636,0,0,1,.322-1.231,5.6,5.6,0,0,0,4.66-.9,5.38,5.38,0,0,0,1.965-3.027,4.944,4.944,0,0,1-3.667-.262A4.236,4.236,0,0,1,65.4,57.264a5.663,5.663,0,0,1,6.007-5.415,7.442,7.442,0,0,1,6.471,3.641,8.992,8.992,0,0,1-.186,9c-1.1,2.05-3,3.312-4.839,4.533a21.245,21.245,0,0,0-2.837,2.114,6.214,6.214,0,0,0-1.2,1.527,8.266,8.266,0,0,1,5.014,2.051A4.315,4.315,0,0,1,75.162,77.8a3.333,3.333,0,0,1-3.722,3.4,4.523,4.523,0,0,1-3.172-1.847A7,7,0,0,1,67,73.959a8.262,8.262,0,0,0-4.64,2.181,19.644,19.644,0,0,0-2.98,4.122c-.147.245-.3.492-.451.74a7.373,7.373,0,0,0-.315.865,4.522,4.522,0,0,0,.706,4.243,3.275,3.275,0,0,0,4.2.373,2.579,2.579,0,0,0,1.041-1.79,1.819,1.819,0,0,0-.808-1.675,1.344,1.344,0,0,0-1.625.217.635.635,0,1,1-.965-.827,2.6,2.6,0,0,1,3.23-.488,3.09,3.09,0,0,1,1.432,2.871A3.869,3.869,0,0,1,64.282,87.5a4.54,4.54,0,0,1-5.9-.524,5.141,5.141,0,0,1-1.259-3.3,11.029,11.029,0,0,1-6,4.22,7.181,7.181,0,0,1-6.312-1.068,5.276,5.276,0,0,1-1.957-4.415A4.715,4.715,0,0,1,47.32,78.144Zm21.974.464a3.283,3.283,0,0,0,2.265,1.33c.075.007.153.011.237.011a2.094,2.094,0,0,0,1.469-.571,2.125,2.125,0,0,0,.629-1.574,3.021,3.021,0,0,0-.928-2.159,7.109,7.109,0,0,0-4.638-1.751A5.668,5.668,0,0,0,69.294,78.608ZM31.68,17.856a3.133,3.133,0,0,1-3.35-2.494,2.785,2.785,0,0,1,1.706-3.139.636.636,0,0,1,.439,1.194,1.522,1.522,0,0,0-.9,1.721,1.892,1.892,0,0,0,2.1,1.445,3.462,3.462,0,0,0,3.2-3.032A3.981,3.981,0,0,0,33.4,10.173a5.921,5.921,0,0,0-5.2-.834c-3.481.922-5.334,3.539-6.992,6.236a18.684,18.684,0,0,1-2.224,3.567.625.625,0,0,1-.157.147,11.7,11.7,0,0,1-1.315,1.5A9.5,9.5,0,0,1,11.6,23.341,7.375,7.375,0,0,1,9.85,25.789a22.447,22.447,0,0,1-3,2.246c-1.786,1.187-3.472,2.307-4.425,4.077a7.749,7.749,0,0,0-.212,7.745,6.185,6.185,0,0,0,5.381,3.02c3.078,0,4.74-2.135,4.74-4.142a3.006,3.006,0,0,0-1.8-2.789,3.422,3.422,0,0,0-3.523.234l-1.089.893.055-1.41a6.649,6.649,0,0,1,8.381-6.288.636.636,0,0,1-.321,1.231,5.6,5.6,0,0,0-4.661.9,5.377,5.377,0,0,0-1.965,3.027,4.943,4.943,0,0,1,3.667.261,4.239,4.239,0,0,1,2.522,3.94A5.664,5.664,0,0,1,7.589,44.15a7.443,7.443,0,0,1-6.471-3.64,8.992,8.992,0,0,1,.186-9c1.1-2.05,3-3.313,4.84-4.534a21.292,21.292,0,0,0,2.836-2.113,6.214,6.214,0,0,0,1.2-1.527,8.278,8.278,0,0,1-5.015-2.052A4.314,4.314,0,0,1,3.838,18.2a3.331,3.331,0,0,1,3.722-3.4,4.518,4.518,0,0,1,3.172,1.847A7,7,0,0,1,12,22.041a8.262,8.262,0,0,0,4.64-2.181,19.68,19.68,0,0,0,2.98-4.122c.148-.245.3-.492.451-.741a7.357,7.357,0,0,0,.315-.864,4.522,4.522,0,0,0-.707-4.244,3.273,3.273,0,0,0-4.2-.371,2.579,2.579,0,0,0-1.041,1.789,1.816,1.816,0,0,0,.808,1.674,1.342,1.342,0,0,0,1.626-.217.631.631,0,0,1,.893-.07.638.638,0,0,1,.071.9,2.606,2.606,0,0,1-3.23.488,3.091,3.091,0,0,1-1.432-2.871A3.867,3.867,0,0,1,14.718,8.5a4.32,4.32,0,0,1,2.623-.85,4.452,4.452,0,0,1,3.273,1.374,5.14,5.14,0,0,1,1.259,3.3,11.027,11.027,0,0,1,6-4.219,8.442,8.442,0,0,1,2.161-.288,6.62,6.62,0,0,1,4.152,1.356,5.276,5.276,0,0,1,1.957,4.415A4.715,4.715,0,0,1,31.68,17.856ZM9.707,17.392a3.279,3.279,0,0,0-2.265-1.33A2.065,2.065,0,0,0,5.105,18.2a3.017,3.017,0,0,0,.929,2.159,7.108,7.108,0,0,0,4.638,1.75A5.666,5.666,0,0,0,9.707,17.392ZM40,87.3l.465.5a5.6,5.6,0,0,1,0,7.7L40,96l-.465-.5a5.6,5.6,0,0,1,0-7.7Zm-.72,4.6A4.416,4.416,0,0,0,40,94.037a4.406,4.406,0,0,0,.72-2.138A4.458,4.458,0,0,0,40,89.267,4.458,4.458,0,0,0,39.277,91.9ZM40,8.7l-.465-.5a5.707,5.707,0,0,1-1.522-4.169A5.688,5.688,0,0,1,39.533.5L40,0l.465.5a5.688,5.688,0,0,1,1.522,3.527A5.707,5.707,0,0,1,40.462,8.2Zm.72-4.6A4.4,4.4,0,0,0,40,1.963a4.409,4.409,0,0,0-.72,2.138A4.46,4.46,0,0,0,40,6.733,4.46,4.46,0,0,0,40.718,4.1Z" transform="translate(6 78.537) rotate(-90)"/>
  </g>
</svg>
